# xmcd CD database file
#
# Track frame offsets:
#	150
#	17188
#	36988
#	56640
#	70573
#	89850
#	133255
#	153665
#	186985
#	218095
#	254063
#	277203
#	299113
#	329730
#
# Disc length: 4791 seconds
#
# Revision: 0
# Processed by: cddbd v1.5.2PL0 Copyright (c) Steve Scherf et al.
# Submitted via: CDex 1.77
#
DISCID=f612b50e
DTITLE=Musica Jazz (Magazine) - Martial Solal - The Art of the Trio
DYEAR=2018
DGENRE=Jazz
TTITLE0=Very Fatigue
TTITLE1=Ouin-Ouin
TTITLE2=Bonsoir
TTITLE3=Theme a Tics
TTITLE4=Middle Jazz
TTITLE5=Frise, parts I and II
TTITLE6=Pionciana
TTITLE7=Jordu
TTITLE8=Nos Smoking
TTITLE9=Special Club
TTITLE10=Dermaplastic
TTITLE11=Aigue-Marine
TTITLE12=Averty, c'est moi
TTITLE13=Gavotte a Gaveau
EXTD=YEAR: 2018
EXTT0=
EXTT1=
EXTT2=
EXTT3=
EXTT4=
EXTT5=
EXTT6=
EXTT7=
EXTT8=
EXTT9=
EXTT10=
EXTT11=
EXTT12=
EXTT13=
PLAYORDER=
